STARTFONT 2.1
FONT tvsys14b
SIZE 20 72 72
FONTBOUNDINGBOX 17 23 0 0
COMMENT "Generated by fontforge, http://fontforge.sourceforge.net"
STARTPROPERTIES 8
POINT_SIZE 200
WEIGHT 10
RESOLUTION 99
RESOLUTION_X 72
RESOLUTION_Y 72
X_HEIGHT 0
QUAD_WIDTH 17
_XMBDFED_INFO "Edited with xmbdfed 4.4."
ENDPROPERTIES
CHARS 256
STARTCHAR char0
ENCODING 0
SWIDTH 850 0
DWIDTH 17 0
BBX 0 0 0 0
BITMAP
ENDCHAR
STARTCHAR char1
ENCODING 1
SWIDTH 850 0
DWIDTH 17 0
BBX 12 20 1 2
BITMAP
0060
0F60
3FE0
30C0
71E0
61E0
E3F0
E370
E770
E770
EE70
EE70
FC70
FC70
7860
78E0
30C0
7FC0
6F00
6000
ENDCHAR
STARTCHAR char2
ENCODING 2
SWIDTH 850 0
DWIDTH 17 0
BBX 12 18 1 3
BITMAP
0F00
3FC0
30C0
70E0
6060
E070
E0F0
E1F0
E370
E670
EC70
F870
F070
6060
70E0
30C0
3FC0
0F00
ENDCHAR
STARTCHAR char3
ENCODING 3
SWIDTH 850 0
DWIDTH 17 0
BBX 12 18 1 3
BITMAP
0F00
3FC0
30C0
70E0
6060
E070
E070
E670
E670
E670
E670
E070
E070
6060
60E0
30C0
3FC0
0F00
ENDCHAR
STARTCHAR char4
ENCODING 4
SWIDTH 850 0
DWIDTH 17 0
BBX 12 18 1 3
BITMAP
0F00
3FC0
30C0
70E0
6060
E070
E070
E070
E0F0
E1F0
E370
E670
EC70
7860
70E0
30C0
3FC0
0F00
ENDCHAR
STARTCHAR char5
ENCODING 5
SWIDTH 850 0
DWIDTH 17 0
BBX 12 18 1 3
BITMAP
0F00
3FC0
30C0
71E0
61E0
E3F0
E370
E770
E770
EE70
EE70
FC70
FC70
7860
78E0
30C0
3FC0
0F00
ENDCHAR
STARTCHAR char6
ENCODING 6
SWIDTH 850 0
DWIDTH 17 0
BBX 10 18 2 3
BITMAP
1E00
7F80
6180
E1C0
C0C0
C0C0
C0C0
C0C0
C0C0
C0C0
C0C0
C0C0
C0C0
C0C0
E1C0
6180
7F80
1E00
ENDCHAR
STARTCHAR char7
ENCODING 7
SWIDTH 850 0
DWIDTH 17 0
BBX 8 8 5 8
BITMAP
3C
7E
FF
FF
FF
FF
7E
3C
ENDCHAR
STARTCHAR char8
ENCODING 8
SWIDTH 850 0
DWIDTH 17 0
BBX 12 18 1 3
BITMAP
0F00
3FC0
30C0
70E0
6060
E070
E070
E070
E070
E070
E070
E070
E070
6060
70E0
30C0
3FC0
0F00
ENDCHAR
STARTCHAR char9
ENCODING 9
SWIDTH 700 0
DWIDTH 14 0
BBX 12 12 2 7
BITMAP
0F00
30C0
4020
4020
8010
8010
8010
8010
4020
4020
30C0
0F00
ENDCHAR
STARTCHAR char10
ENCODING 10
SWIDTH 850 0
DWIDTH 17 0
BBX 0 0 0 0
BITMAP
ENDCHAR
STARTCHAR char11
ENCODING 11
SWIDTH 850 0
DWIDTH 17 0
BBX 14 18 1 3
BITMAP
0FC0
1FE0
3870
7038
7038
E01C
E01C
E01C
E01C
E01C
E01C
E01C
E01C
7038
7038
3870
1FE0
0FC0
ENDCHAR
STARTCHAR char12
ENCODING 12
SWIDTH 850 0
DWIDTH 17 0
BBX 14 18 1 3
BITMAP
1FE0
3FF0
7038
E01C
E01C
E01C
E01C
E01C
E01C
E01C
E01C
E01C
E01C
E01C
E01C
7038
3FF0
1FE0
ENDCHAR
STARTCHAR char13
ENCODING 13
SWIDTH 850 0
DWIDTH 17 0
BBX 14 18 1 3
BITMAP
3FF0
7FF8
E01C
C00C
C00C
C00C
C00C
C00C
C00C
C00C
C00C
C00C
C00C
C00C
C00C
E01C
7FF8
3FF0
ENDCHAR
STARTCHAR char14
ENCODING 14
SWIDTH 850 0
DWIDTH 17 0
BBX 12 18 1 3
BITMAP
0F00
3FC0
30C0
70E0
60E0
E170
E170
E270
E270
E470
E470
E870
E870
7060
70E0
30C0
3FC0
0F00
ENDCHAR
STARTCHAR char15
ENCODING 15
SWIDTH 700 0
DWIDTH 14 0
BBX 13 20 1 2
BITMAP
FFF8
FFF8
FFF8
FFF8
FFF8
FFF8
FFF8
FFF8
FFF8
FFF8
FFF8
FFF8
FFF8
FFF8
FFF8
FFF8
FFF8
FFF8
FFF8
FFF8
ENDCHAR
STARTCHAR char16
ENCODING 16
SWIDTH 850 0
DWIDTH 17 0
BBX 14 18 1 3
BITMAP
0FC0
1FE0
3870
7038
7038
E01C
E01C
E01C
E01C
E01C
E01C
E31C
E39C
71D8
70F8
3870
1FF8
0FDC
ENDCHAR
STARTCHAR char17
ENCODING 17
SWIDTH 850 0
DWIDTH 17 0
BBX 13 15 0 5
BITMAP
0018
0078
0078
01F8
01F8
1FF8
FFF8
FFF8
1FF8
1FF8
01F8
0078
0078
0018
0018
ENDCHAR
STARTCHAR char18
ENCODING 18
SWIDTH 850 0
DWIDTH 17 0
BBX 12 15 1 5
BITMAP
0F00
3FC0
3FC0
FFF0
FFF0
0F00
0F00
0F00
0F00
0F00
FFF0
3FC0
3FC0
0F00
0F00
ENDCHAR
STARTCHAR char19
ENCODING 19
SWIDTH 850 0
DWIDTH 17 0
BBX 12 15 1 5
BITMAP
F0F0
F0F0
F0F0
F0F0
F0F0
F0F0
F0F0
F0F0
F0F0
F0F0
0000
F0F0
F0F0
F0F0
F0F0
ENDCHAR
STARTCHAR char20
ENCODING 20
SWIDTH 850 0
DWIDTH 17 0
BBX 4 8 9 12
BITMAP
C0
00
00
00
00
00
F0
F0
ENDCHAR
STARTCHAR char21
ENCODING 21
SWIDTH 850 0
DWIDTH 17 0
BBX 13 22 0 0
BITMAP
7FE0
7FE0
E078
7800
7800
1F80
1F80
79E0
E078
E078
E078
E078
79E0
1F80
1F80
01E0
01E0
E078
7FE0
7FE0
7FE0
7FE0
ENDCHAR
STARTCHAR char22
ENCODING 22
SWIDTH 850 0
DWIDTH 17 0
BBX 13 5 0 5
BITMAP
FFF8
FFF8
FFF8
FFF8
FFF8
ENDCHAR
STARTCHAR char23
ENCODING 23
SWIDTH 850 0
DWIDTH 17 0
BBX 12 16 1 4
BITMAP
0F00
3FC0
3FC0
FFF0
FFF0
0F00
0F00
0F00
0F00
0F00
FFF0
3FC0
3FC0
0F00
0F00
FFF0
ENDCHAR
STARTCHAR char24
ENCODING 24
SWIDTH 850 0
DWIDTH 17 0
BBX 14 17 1 3
BITMAP
0300
0780
0FC0
1FE0
3B70
7338
E31C
C30C
0300
0300
0300
0300
0300
0300
0300
0300
0300
ENDCHAR
STARTCHAR char25
ENCODING 25
SWIDTH 850 0
DWIDTH 17 0
BBX 14 17 1 3
BITMAP
0300
0300
0300
0300
0300
0300
0300
0300
0300
C30C
E31C
7338
3B70
1FE0
0FC0
0780
0300
ENDCHAR
STARTCHAR char26
ENCODING 26
SWIDTH 850 0
DWIDTH 17 0
BBX 15 16 0 4
BITMAP
0100
0180
01C0
00E0
0070
0038
001C
FFFE
FFFE
001C
0038
0070
00E0
01C0
0180
0100
ENDCHAR
STARTCHAR char27
ENCODING 27
SWIDTH 850 0
DWIDTH 17 0
BBX 15 16 0 4
BITMAP
0100
0300
0700
0E00
1C00
3800
7000
FFFE
FFFE
7000
3800
1C00
0E00
0700
0300
0100
ENDCHAR
STARTCHAR char28
ENCODING 28
SWIDTH 850 0
DWIDTH 17 0
BBX 13 6 0 9
BITMAP
E000
E000
E000
E000
E000
FFF8
ENDCHAR
STARTCHAR char29
ENCODING 29
SWIDTH 850 0
DWIDTH 17 0
BBX 13 8 0 9
BITMAP
1980
1980
79E0
FFF8
FFF8
79E0
79E0
1980
ENDCHAR
STARTCHAR char30
ENCODING 30
SWIDTH 850 0
DWIDTH 17 0
BBX 15 15 1 5
BITMAP
0100
0380
0380
07C0
07C0
0FE0
0FE0
1FF0
1FF0
3FF8
3FF8
7FFC
7FFC
FFFE
FFFE
ENDCHAR
STARTCHAR char31
ENCODING 31
SWIDTH 850 0
DWIDTH 17 0
BBX 13 12 0 7
BITMAP
FFF8
FFF8
FFF8
FFF8
7FE0
7FE0
7FE0
1F80
1F80
1F80
0600
0600
ENDCHAR
STARTCHAR char32
ENCODING 32
SWIDTH 850 0
DWIDTH 17 0
BBX 0 0 0 0
BITMAP
ENDCHAR
STARTCHAR char33
ENCODING 33
SWIDTH 850 0
DWIDTH 17 0
BBX 8 15 3 5
BITMAP
3C
FF
FF
FF
FF
FF
3C
3C
3C
3C
00
3C
3C
3C
3C
ENDCHAR
STARTCHAR char34
ENCODING 34
SWIDTH 850 0
DWIDTH 17 0
BBX 12 7 1 15
BITMAP
F0F0
F0F0
F0F0
F0F0
F0F0
30C0
30C0
ENDCHAR
STARTCHAR char35
ENCODING 35
SWIDTH 850 0
DWIDTH 17 0
BBX 13 15 0 5
BITMAP
38E0
38E0
38E0
FFF8
FFF8
38E0
38E0
38E0
38E0
38E0
FFF8
FFF8
38E0
38E0
38E0
ENDCHAR
STARTCHAR char36
ENCODING 36
SWIDTH 850 0
DWIDTH 17 0
BBX 13 23 0 0
BITMAP
0780
0780
0780
7FE0
E078
E078
E018
E018
E000
7FE0
7FE0
0078
0078
8078
E078
E078
7FE0
7FE0
0780
0780
0780
0780
0780
ENDCHAR
STARTCHAR char37
ENCODING 37
SWIDTH 850 0
DWIDTH 17 0
BBX 13 12 0 5
BITMAP
E038
E070
E0E0
01C0
0380
0700
0E00
1C00
3800
7038
E038
C038
ENDCHAR
STARTCHAR char38
ENCODING 38
SWIDTH 850 0
DWIDTH 17 0
BBX 13 15 0 5
BITMAP
1F80
79E0
79E0
79E0
79E0
1F80
7E78
7E78
E7E0
E7E0
E1E0
E1E0
E1E0
7E78
7E78
ENDCHAR
STARTCHAR char39
ENCODING 39
SWIDTH 850 0
DWIDTH 17 0
BBX 6 7 1 15
BITMAP
3C
3C
3C
3C
3C
F0
F0
ENDCHAR
STARTCHAR char40
ENCODING 40
SWIDTH 850 0
DWIDTH 17 0
BBX 8 15 3 5
BITMAP
0F
3C
3C
F0
F0
F0
F0
F0
F0
F0
F0
3C
3C
0F
0F
ENDCHAR
STARTCHAR char41
ENCODING 41
SWIDTH 850 0
DWIDTH 17 0
BBX 8 15 3 5
BITMAP
F0
3C
3C
0F
0F
0F
0F
0F
0F
0F
0F
3C
3C
F0
F0
ENDCHAR
STARTCHAR char42
ENCODING 42
SWIDTH 850 0
DWIDTH 17 0
BBX 17 17 0 4
BITMAP
E3E380
922480
8A2880
463100
222200
100400
F80F80
800080
800080
800080
F80F80
100400
222200
463100
8A2880
922480
E3E380
ENDCHAR
STARTCHAR char43
ENCODING 43
SWIDTH 850 0
DWIDTH 17 0
BBX 17 17 0 4
BITMAP
03E000
022000
022000
022000
022000
022000
FE3F80
800080
800080
800080
FE3F80
022000
022000
022000
022000
022000
03E000
ENDCHAR
STARTCHAR char44
ENCODING 44
SWIDTH 850 0
DWIDTH 17 0
BBX 6 6 3 4
BITMAP
3C
3C
3C
3C
3C
F0
ENDCHAR
STARTCHAR char45
ENCODING 45
SWIDTH 850 0
DWIDTH 17 0
BBX 13 2 1 11
BITMAP
FFF8
FFF8
ENDCHAR
STARTCHAR char46
ENCODING 46
SWIDTH 850 0
DWIDTH 17 0
BBX 4 4 6 3
BITMAP
F0
F0
F0
F0
ENDCHAR
STARTCHAR char47
ENCODING 47
SWIDTH 850 0
DWIDTH 17 0
BBX 11 18 3 3
BITMAP
0060
00C0
00C0
0180
0180
0300
0300
0600
0600
0C00
0C00
1800
1800
3000
3000
6000
6000
C000
ENDCHAR
STARTCHAR char48
ENCODING 48
SWIDTH 850 0
DWIDTH 17 0
BBX 14 20 1 2
BITMAP
1FE0
2010
4008
8FC4
8884
8884
8944
8944
8AC4
8AC4
8D44
8D44
8A44
8A44
8444
8444
8FC4
4008
2010
1FE0
ENDCHAR
STARTCHAR char49
ENCODING 49
SWIDTH 850 0
DWIDTH 17 0
BBX 15 19 0 2
BITMAP
03C0
1C40
E040
8040
BC40
E440
0440
0440
0440
0440
0440
0440
0440
0440
0440
FC7E
8002
8002
FFFE
ENDCHAR
STARTCHAR char50
ENCODING 50
SWIDTH 850 0
DWIDTH 17 0
BBX 13 20 1 2
BITMAP
1F80
2060
4010
8F10
9088
9088
F088
0088
0110
0220
0440
0880
1100
2200
2400
4400
8FF8
8008
8008
FFF8
ENDCHAR
STARTCHAR char51
ENCODING 51
SWIDTH 850 0
DWIDTH 17 0
BBX 12 20 1 2
BITMAP
3F00
40C0
8020
BE10
4110
0110
0110
1E20
2040
2180
1C40
0220
0110
0110
0110
4110
BE20
8040
8080
FF00
ENDCHAR
STARTCHAR char52
ENCODING 52
SWIDTH 850 0
DWIDTH 17 0
BBX 15 20 0 2
BITMAP
00F8
0088
0188
0208
0208
0488
0888
1188
2288
2488
4488
8F8E
8002
8002
FF8E
0088
0088
0088
0088
00F8
ENDCHAR
STARTCHAR char53
ENCODING 53
SWIDTH 850 0
DWIDTH 17 0
BBX 11 20 2 2
BITMAP
FFE0
8020
8020
9FE0
9000
9000
9C00
8300
8080
FC40
0440
0220
0220
0220
0220
4420
BC40
8080
8100
FE00
ENDCHAR
STARTCHAR char54
ENCODING 54
SWIDTH 850 0
DWIDTH 17 0
BBX 14 20 0 2
BITMAP
07E0
0C10
1008
21E8
4710
4400
4800
8FC0
8C30
8808
8788
8844
8844
8844
8844
4444
4788
2010
1820
07C0
ENDCHAR
STARTCHAR char55
ENCODING 55
SWIDTH 850 0
DWIDTH 17 0
BBX 13 20 1 2
BITMAP
FFF8
8008
8008
8008
FF98
0110
0120
0220
0240
0440
0480
0880
1100
1100
2200
2200
2200
4400
4400
3800
ENDCHAR
STARTCHAR char56
ENCODING 56
SWIDTH 850 0
DWIDTH 17 0
BBX 14 20 1 2
BITMAP
07C0
1820
2010
4388
4448
4448
4448
2390
1020
1020
2010
4708
8884
88C4
8844
8844
4788
4010
3020
0FC0
ENDCHAR
STARTCHAR char57
ENCODING 57
SWIDTH 850 0
DWIDTH 17 0
BBX 14 20 1 2
BITMAP
0F80
1060
2010
4788
8888
8844
8844
8844
8844
4784
4044
30C4
0F44
0048
0088
2188
5E10
4020
20C0
1F00
ENDCHAR
STARTCHAR char58
ENCODING 58
SWIDTH 850 0
DWIDTH 17 0
BBX 4 13 5 3
BITMAP
F0
F0
F0
F0
00
00
00
00
00
F0
F0
F0
F0
ENDCHAR
STARTCHAR char59
ENCODING 59
SWIDTH 850 0
DWIDTH 17 0
BBX 6 14 3 5
BITMAP
3C
3C
3C
3C
00
00
00
00
00
3C
3C
3C
F0
F0
ENDCHAR
STARTCHAR char60
ENCODING 60
SWIDTH 850 0
DWIDTH 17 0
BBX 12 15 1 5
BITMAP
00F0
03C0
03C0
0F00
0F00
3C00
F000
F000
3C00
3C00
0F00
03C0
03C0
00F0
00F0
ENDCHAR
STARTCHAR char61
ENCODING 61
SWIDTH 850 0
DWIDTH 17 0
BBX 12 6 1 9
BITMAP
FFF0
0000
0000
0000
0000
FFF0
ENDCHAR
STARTCHAR char62
ENCODING 62
SWIDTH 850 0
DWIDTH 17 0
BBX 12 15 1 5
BITMAP
F000
3C00
3C00
0F00
0F00
03C0
00F0
00F0
03C0
03C0
0F00
3C00
3C00
F000
F000
ENDCHAR
STARTCHAR char63
ENCODING 63
SWIDTH 850 0
DWIDTH 17 0
BBX 13 15 0 5
BITMAP
7FE0
E078
E078
E078
E078
01E0
0780
0780
0780
0780
0000
0780
0780
0780
0780
ENDCHAR
STARTCHAR char64
ENCODING 64
SWIDTH 850 0
DWIDTH 17 0
BBX 0 0 0 0
BITMAP
ENDCHAR
STARTCHAR char65
ENCODING 65
SWIDTH 850 0
DWIDTH 17 0
BBX 17 20 0 2
BITMAP
01C000
022000
021000
049000
049000
04C800
08C800
094800
094400
126400
122400
13F200
200200
200200
27F900
480900
480900
480480
900480
600300
ENDCHAR
STARTCHAR char66
ENCODING 66
SWIDTH 850 0
DWIDTH 17 0
BBX 13 20 1 2
BITMAP
FF80
8040
8020
9F10
9090
9090
9090
9090
9F10
8020
8010
9F88
9048
9048
9048
9048
9F88
8010
8020
FFC0
ENDCHAR
STARTCHAR char67
ENCODING 67
SWIDTH 850 0
DWIDTH 17 0
BBX 15 20 0 2
BITMAP
03F8
0C04
1002
21F2
421C
4400
4400
8800
8800
8800
8800
8800
8800
8800
4400
4304
20FA
1002
0C04
03F8
ENDCHAR
STARTCHAR char68
ENCODING 68
SWIDTH 850 0
DWIDTH 17 0
BBX 15 20 0 2
BITMAP
FFC0
8030
8008
8F04
88C4
8842
8822
8822
8822
8822
8822
8822
8822
8822
8844
88C4
8F08
8010
8020
FFC0
ENDCHAR
STARTCHAR char69
ENCODING 69
SWIDTH 850 0
DWIDTH 17 0
BBX 14 20 0 2
BITMAP
FFF8
8008
8008
8FF8
8800
8800
8800
8FF0
8010
8010
8FF0
8800
8800
8800
8800
8800
8FFC
8004
8004
FFFC
ENDCHAR
STARTCHAR char70
ENCODING 70
SWIDTH 850 0
DWIDTH 17 0
BBX 14 20 0 2
BITMAP
FFFC
8004
8004
8FFC
8800
8800
8800
8800
8FF8
8008
8018
8FF0
8800
8800
8800
8800
8800
8800
8800
F800
ENDCHAR
STARTCHAR char71
ENCODING 71
SWIDTH 850 0
DWIDTH 17 0
BBX 15 20 0 2
BITMAP
03F8
0C04
1002
21FA
4204
4400
4400
8800
8800
8800
883E
8822
8822
8422
4422
4222
21E2
1002
0C04
07F8
ENDCHAR
STARTCHAR char72
ENCODING 72
SWIDTH 850 0
DWIDTH 17 0
BBX 13 20 1 2
BITMAP
F8F8
8888
8888
8888
8888
8888
8888
8888
8F88
8008
8008
8F88
8888
8888
8888
8888
8888
8888
8888
F8F8
ENDCHAR
STARTCHAR char73
ENCODING 73
SWIDTH 850 0
DWIDTH 17 0
BBX 13 20 1 2
BITMAP
FFF8
8008
8008
F8F8
0880
0880
0880
0880
0880
0880
0880
0880
0880
0880
0880
0880
F8F8
8008
8008
FFF8
ENDCHAR
STARTCHAR char74
ENCODING 74
SWIDTH 850 0
DWIDTH 17 0
BBX 16 20 0 2
BITMAP
3FFF
2001
2001
3F3F
0120
0120
0120
0120
0120
0120
0120
0120
0120
0120
6120
9120
8E20
4040
2080
1F00
ENDCHAR
STARTCHAR char75
ENCODING 75
SWIDTH 850 0
DWIDTH 17 0
BBX 15 20 0 2
BITMAP
F83C
8844
8888
8890
8920
8A20
8C40
8C80
8880
8100
8080
8840
8C40
8C20
8A10
8908
8884
8844
8842
F83E
ENDCHAR
STARTCHAR char76
ENCODING 76
SWIDTH 850 0
DWIDTH 17 0
BBX 13 20 0 2
BITMAP
F800
8800
8800
8800
8800
8800
8800
8800
8800
8800
8800
8800
8800
8800
8800
8800
8FF8
8008
8008
FFF8
ENDCHAR
STARTCHAR char77
ENCODING 77
SWIDTH 850 0
DWIDTH 17 0
BBX 15 20 0 2
BITMAP
E00E
9012
8822
8442
8382
9012
9832
9452
9292
9112
9012
9012
9012
9012
9012
9012
9012
9012
9012
F01E
ENDCHAR
STARTCHAR char78
ENCODING 78
SWIDTH 850 0
DWIDTH 17 0
BBX 13 20 1 2
BITMAP
F078
8848
8848
8448
8448
8248
8248
8148
9148
9148
98C8
98C8
9448
9448
9208
9208
9108
9108
9088
F0F8
ENDCHAR
STARTCHAR char79
ENCODING 79
SWIDTH 850 0
DWIDTH 17 0
BBX 16 20 0 2
BITMAP
0FF0
1008
2004
47E2
8811
8811
8811
8811
8811
8811
8811
8811
8811
8811
8811
8811
47E2
2004
1008
0FF0
ENDCHAR
STARTCHAR char80
ENCODING 80
SWIDTH 850 0
DWIDTH 17 0
BBX 13 20 1 2
BITMAP
FFC0
8020
8010
8F08
8888
8888
8888
8888
8890
8F10
8020
80C0
8F00
8800
8800
8800
8800
8800
8800
F800
ENDCHAR
STARTCHAR char81
ENCODING 81
SWIDTH 850 0
DWIDTH 17 0
BBX 16 20 0 2
BITMAP
0FF0
1008
2004
47E2
8811
8811
8811
8811
8811
8811
8B91
8C51
8C51
8A31
8911
8882
47C2
2001
1019
0FE6
ENDCHAR
STARTCHAR char82
ENCODING 82
SWIDTH 850 0
DWIDTH 17 0
BBX 15 20 0 2
BITMAP
FF80
8040
8020
9F10
9090
9090
9090
9090
9110
9E20
8040
8080
9C40
9220
9110
9088
9044
9022
9012
F00E
ENDCHAR
STARTCHAR char83
ENCODING 83
SWIDTH 850 0
DWIDTH 17 0
BBX 14 20 0 2
BITMAP
0FC0
3020
4010
87D0
8820
8800
8C00
8300
40C0
3020
0C10
0208
0184
0044
0044
6044
9F88
8010
4020
3FC0
ENDCHAR
STARTCHAR char84
ENCODING 84
SWIDTH 850 0
DWIDTH 17 0
BBX 17 20 0 2
BITMAP
FFFF80
800080
800080
FE3F80
022000
022000
022000
022000
022000
022000
022000
022000
022000
022000
022000
022000
022000
022000
022000
03E000
ENDCHAR
STARTCHAR char85
ENCODING 85
SWIDTH 850 0
DWIDTH 17 0
BBX 13 20 1 2
BITMAP
F878
8848
8848
8848
8848
8848
8848
8848
8848
8848
8848
8848
8848
8848
8848
8848
4790
4010
3060
0F80
ENDCHAR
STARTCHAR char86
ENCODING 86
SWIDTH 850 0
DWIDTH 17 0
BBX 17 20 0 2
BITMAP
600300
900480
900480
480900
480900
480900
241200
241200
241200
122400
122400
122400
094800
094800
09C800
049000
041000
022000
022000
01C000
ENDCHAR
STARTCHAR char87
ENCODING 87
SWIDTH 850 0
DWIDTH 17 0
BBX 17 20 0 2
BITMAP
F00780
900480
900480
900480
900480
900480
900480
900480
900480
908480
914480
922480
941480
988C80
914480
822080
841080
880880
900480
E00380
ENDCHAR
STARTCHAR char88
ENCODING 88
SWIDTH 850 0
DWIDTH 17 0
BBX 17 20 0 2
BITMAP
F80780
840880
421100
221200
212400
10C400
08C800
081000
041000
022000
021000
040800
088800
098400
124400
222200
242100
481100
881080
F80F80
ENDCHAR
STARTCHAR char89
ENCODING 89
SWIDTH 850 0
DWIDTH 17 0
BBX 17 20 0 2
BITMAP
F00780
880880
440900
421200
221200
212400
114400
10C800
080800
041000
042000
022000
022000
022000
022000
022000
022000
022000
022000
03E000
ENDCHAR
STARTCHAR char90
ENCODING 90
SWIDTH 850 0
DWIDTH 17 0
BBX 15 20 0 2
BITMAP
7FFE
4002
4002
7FC2
0084
0088
0108
0210
0220
0420
0840
0880
1080
2100
4200
C400
87FE
8002
8002
FFFE
ENDCHAR
STARTCHAR char91
ENCODING 91
SWIDTH 850 0
DWIDTH 17 0
BBX 8 15 3 5
BITMAP
FF
F0
F0
F0
F0
F0
F0
F0
F0
F0
F0
F0
F0
FF
FF
ENDCHAR
STARTCHAR char92
ENCODING 92
SWIDTH 850 0
DWIDTH 17 0
BBX 13 15 0 5
BITMAP
8000
E000
E000
F800
F800
7E00
1F80
1F80
07E0
07E0
01F8
0078
0078
0018
0018
ENDCHAR
STARTCHAR char93
ENCODING 93
SWIDTH 850 0
DWIDTH 17 0
BBX 8 15 3 5
BITMAP
FF
0F
0F
0F
0F
0F
0F
0F
0F
0F
0F
0F
0F
FF
FF
ENDCHAR
STARTCHAR char94
ENCODING 94
SWIDTH 850 0
DWIDTH 17 0
BBX 13 6 0 17
BITMAP
0600
1F80
1F80
79E0
E078
E078
ENDCHAR
STARTCHAR char95
ENCODING 95
SWIDTH 850 0
DWIDTH 17 0
BBX 15 2 1 3
BITMAP
FFFE
FFFE
ENDCHAR
STARTCHAR char96
ENCODING 96
SWIDTH 850 0
DWIDTH 17 0
BBX 6 4 3 19
BITMAP
F0
F0
F0
3C
ENDCHAR
STARTCHAR char97
ENCODING 97
SWIDTH 850 0
DWIDTH 17 0
BBX 13 10 0 5
BITMAP
7F80
01E0
01E0
7FE0
7FE0
E1E0
E1E0
E1E0
7E78
7E78
ENDCHAR
STARTCHAR char98
ENCODING 98
SWIDTH 850 0
DWIDTH 17 0
BBX 13 15 0 5
BITMAP
F800
7800
7800
7800
7800
7F80
79E0
79E0
7878
7878
7878
7878
7878
7FE0
7FE0
ENDCHAR
STARTCHAR char99
ENCODING 99
SWIDTH 850 0
DWIDTH 17 0
BBX 13 10 0 5
BITMAP
7FE0
E078
E078
E000
E000
E000
E078
E078
7FE0
7FE0
ENDCHAR
STARTCHAR char100
ENCODING 100
SWIDTH 850 0
DWIDTH 17 0
BBX 13 15 0 5
BITMAP
07E0
01E0
01E0
01E0
01E0
1FE0
79E0
79E0
E1E0
E1E0
E1E0
E1E0
E1E0
7E78
7E78
ENDCHAR
STARTCHAR char101
ENCODING 101
SWIDTH 850 0
DWIDTH 17 0
BBX 13 10 0 5
BITMAP
7FE0
E078
E078
FFF8
FFF8
E000
E078
E078
7FE0
7FE0
ENDCHAR
STARTCHAR char102
ENCODING 102
SWIDTH 850 0
DWIDTH 17 0
BBX 11 15 0 5
BITMAP
1F80
79E0
79E0
7860
7860
7800
FE00
FE00
7800
7800
7800
7800
7800
FE00
FE00
ENDCHAR
STARTCHAR char103
ENCODING 103
SWIDTH 850 0
DWIDTH 17 0
BBX 13 15 0 0
BITMAP
7E78
E1E0
E1E0
E1E0
E1E0
E1E0
7FE0
7FE0
01E0
01E0
E1E0
7F80
7F80
7F80
7F80
ENDCHAR
STARTCHAR char104
ENCODING 104
SWIDTH 850 0
DWIDTH 17 0
BBX 13 15 0 5
BITMAP
F800
7800
7800
7800
7800
79E0
7E78
7E78
7878
7878
7878
7878
7878
F878
F878
ENDCHAR
STARTCHAR char105
ENCODING 105
SWIDTH 850 0
DWIDTH 17 0
BBX 8 15 3 5
BITMAP
3C
3C
3C
00
00
FC
3C
3C
3C
3C
3C
3C
3C
FF
FF
ENDCHAR
STARTCHAR char106
ENCODING 106
SWIDTH 850 0
DWIDTH 17 0
BBX 12 20 1 0
BITMAP
00F0
00F0
00F0
0000
0000
03F0
00F0
00F0
00F0
00F0
00F0
00F0
00F0
F0F0
F0F0
F0F0
3FC0
3FC0
3FC0
3FC0
ENDCHAR
STARTCHAR char107
ENCODING 107
SWIDTH 850 0
DWIDTH 17 0
BBX 13 15 0 5
BITMAP
F800
7800
7800
7800
7800
7878
79E0
79E0
7F80
7F80
79E0
7878
7878
F878
F878
ENDCHAR
STARTCHAR char108
ENCODING 108
SWIDTH 850 0
DWIDTH 17 0
BBX 8 15 3 5
BITMAP
FC
3C
3C
3C
3C
3C
3C
3C
3C
3C
3C
3C
3C
FF
FF
ENDCHAR
STARTCHAR char109
ENCODING 109
SWIDTH 850 0
DWIDTH 17 0
BBX 13 10 0 5
BITMAP
F9E0
FFF8
FFF8
E678
E678
E678
E678
E678
E078
E078
ENDCHAR
STARTCHAR char110
ENCODING 110
SWIDTH 850 0
DWIDTH 17 0
BBX 13 10 0 5
BITMAP
E7E0
7878
7878
7878
7878
7878
7878
7878
7878
7878
ENDCHAR
STARTCHAR char111
ENCODING 111
SWIDTH 850 0
DWIDTH 17 0
BBX 13 10 0 5
BITMAP
7FE0
E078
E078
E078
E078
E078
E078
E078
7FE0
7FE0
ENDCHAR
STARTCHAR char112
ENCODING 112
SWIDTH 850 0
DWIDTH 17 0
BBX 13 15 0 0
BITMAP
E7E0
7878
7878
7878
7878
7878
7FE0
7FE0
7800
7800
7800
FE00
FE00
FE00
FE00
ENDCHAR
STARTCHAR char113
ENCODING 113
SWIDTH 850 0
DWIDTH 17 0
BBX 13 15 0 0
BITMAP
7E78
E1E0
E1E0
E1E0
E1E0
E1E0
7FE0
7FE0
01E0
01E0
01E0
07F8
07F8
07F8
07F8
ENDCHAR
STARTCHAR char114
ENCODING 114
SWIDTH 850 0
DWIDTH 17 0
BBX 13 10 0 5
BITMAP
E7E0
7E78
7E78
7878
7878
7800
7800
7800
FE00
FE00
ENDCHAR
STARTCHAR char115
ENCODING 115
SWIDTH 850 0
DWIDTH 17 0
BBX 13 10 0 5
BITMAP
7FE0
E078
E078
7E00
7E00
07E0
E078
E078
7FE0
7FE0
ENDCHAR
STARTCHAR char116
ENCODING 116
SWIDTH 850 0
DWIDTH 17 0
BBX 13 15 0 5
BITMAP
0600
1E00
1E00
1E00
1E00
FFE0
1E00
1E00
1E00
1E00
1E00
1E78
1E78
07E0
07E0
ENDCHAR
STARTCHAR char117
ENCODING 117
SWIDTH 850 0
DWIDTH 17 0
BBX 13 10 0 5
BITMAP
E1E0
E1E0
E1E0
E1E0
E1E0
E1E0
E1E0
E1E0
7E78
7E78
ENDCHAR
STARTCHAR char118
ENCODING 118
SWIDTH 850 0
DWIDTH 17 0
BBX 12 10 1 5
BITMAP
F0F0
F0F0
F0F0
F0F0
F0F0
F0F0
3FC0
3FC0
0F00
0F00
ENDCHAR
STARTCHAR char119
ENCODING 119
SWIDTH 850 0
DWIDTH 17 0
BBX 13 10 0 5
BITMAP
E078
E078
E078
E678
E678
E678
FFF8
FFF8
79E0
79E0
ENDCHAR
STARTCHAR char120
ENCODING 120
SWIDTH 850 0
DWIDTH 17 0
BBX 13 10 0 5
BITMAP
E078
79E0
79E0
1F80
1F80
1F80
79E0
79E0
E078
E078
ENDCHAR
STARTCHAR char121
ENCODING 121
SWIDTH 850 0
DWIDTH 17 0
BBX 13 15 0 0
BITMAP
E078
E078
E078
E078
E078
E078
7FF8
7FF8
0078
0078
01E0
FF80
FF80
FF80
FF80
ENDCHAR
STARTCHAR char122
ENCODING 122
SWIDTH 850 0
DWIDTH 17 0
BBX 13 10 0 5
BITMAP
FFF8
E1E0
E1E0
0780
0780
1E00
7878
7878
FFF8
FFF8
ENDCHAR
STARTCHAR char123
ENCODING 123
SWIDTH 850 0
DWIDTH 17 0
BBX 12 15 1 5
BITMAP
03F0
0F00
0F00
0F00
0F00
0F00
FC00
FC00
0F00
0F00
0F00
0F00
0F00
03F0
03F0
ENDCHAR
STARTCHAR char124
ENCODING 124
SWIDTH 850 0
DWIDTH 17 0
BBX 2 17 6 4
BITMAP
C0
C0
C0
C0
C0
C0
C0
00
00
C0
C0
C0
C0
C0
C0
C0
C0
ENDCHAR
STARTCHAR char125
ENCODING 125
SWIDTH 850 0
DWIDTH 17 0
BBX 12 15 1 5
BITMAP
FC00
0F00
0F00
0F00
0F00
0F00
03F0
03F0
0F00
0F00
0F00
0F00
0F00
FC00
FC00
ENDCHAR
STARTCHAR char126
ENCODING 126
SWIDTH 850 0
DWIDTH 17 0
BBX 13 3 0 17
BITMAP
7E18
E730
C3E0
ENDCHAR
STARTCHAR char127
ENCODING 127
SWIDTH 850 0
DWIDTH 17 0
BBX 13 10 0 7
BITMAP
0600
0600
1F80
79E0
79E0
E078
E078
E078
FFF8
FFF8
ENDCHAR
STARTCHAR char128
ENCODING 128
SWIDTH 850 0
DWIDTH 17 0
BBX 17 17 0 4
BITMAP
008000
014000
022000
022000
049000
049000
094800
094800
122400
122400
241200
241200
480900
4FF900
800080
800080
FFFF80
ENDCHAR
STARTCHAR char129
ENCODING 129
SWIDTH 850 0
DWIDTH 17 0
BBX 17 17 0 4
BITMAP
FFFF80
800080
800080
9FFC80
900480
900480
900480
900480
900480
900480
900480
900480
900480
9FFC80
800080
800080
FFFF80
ENDCHAR
STARTCHAR char130
ENCODING 130
SWIDTH 850 0
DWIDTH 17 0
BBX 15 15 1 5
BITMAP
FFFE
FFFE
C006
C006
C006
C006
C006
C006
C006
FFFE
FFFE
C006
C006
FFFE
FFFE
ENDCHAR
STARTCHAR char131
ENCODING 131
SWIDTH 850 0
DWIDTH 17 0
BBX 15 15 1 5
BITMAP
FFFE
FFFE
600C
600C
3FF8
3FF8
1830
1830
0C60
0C60
06C0
06C0
0380
0380
0100
ENDCHAR
STARTCHAR char132
ENCODING 132
SWIDTH 850 0
DWIDTH 17 0
BBX 15 15 1 5
BITMAP
0380
07C0
0EE0
1C70
3838
701C
E00E
C006
E00E
701C
3838
1C70
0EE0
07C0
0380
ENDCHAR
STARTCHAR char133
ENCODING 133
SWIDTH 850 0
DWIDTH 17 0
BBX 15 11 1 7
BITMAP
0FE0
1FF0
3838
701C
E00E
C006
E00E
701C
3838
1FF0
0FE0
ENDCHAR
STARTCHAR char134
ENCODING 134
SWIDTH 850 0
DWIDTH 17 0
BBX 15 15 1 5
BITMAP
0100
0380
0380
06C0
06C0
0C60
0C60
1830
1830
3018
3018
600C
600C
C006
C006
ENDCHAR
STARTCHAR char135
ENCODING 135
SWIDTH 850 0
DWIDTH 17 0
BBX 15 15 1 5
BITMAP
FFFE
FFFE
C00E
C01E
C036
C066
C0C6
C186
C306
C606
CC06
D806
F006
FFFE
FFFE
ENDCHAR
STARTCHAR char136
ENCODING 136
SWIDTH 850 0
DWIDTH 17 0
BBX 15 15 1 5
BITMAP
FFFE
FFFE
600C
600C
3018
3018
1830
1830
0C60
0C60
06C0
06C0
0380
0380
0100
ENDCHAR
STARTCHAR char137
ENCODING 137
SWIDTH 850 0
DWIDTH 17 0
BBX 12 18 2 3
BITMAP
FFF0
FFF0
0070
0070
0070
0070
0070
3FF0
3FF0
0070
0070
0070
0070
0070
0070
0070
FFF0
FFF0
ENDCHAR
STARTCHAR char138
ENCODING 138
SWIDTH 800 0
DWIDTH 16 0
BBX 15 15 1 6
BITMAP
C006
600C
3018
1830
0C60
06C0
0380
0100
0380
06C0
0C60
1830
3018
600C
C006
ENDCHAR
STARTCHAR char139
ENCODING 139
SWIDTH 850 0
DWIDTH 17 0
BBX 16 16 1 5
BITMAP
07E0
1818
2004
4002
4002
8001
8001
8001
8001
8001
8001
4002
4002
2004
1818
07E0
ENDCHAR
STARTCHAR char140
ENCODING 140
SWIDTH 850 0
DWIDTH 17 0
BBX 17 17 0 5
BITMAP
008000
014000
022000
041000
080800
100400
200200
400100
800080
400100
200200
100400
080800
041000
022000
014000
008000
ENDCHAR
STARTCHAR char141
ENCODING 141
SWIDTH 850 0
DWIDTH 17 0
BBX 16 16 1 4
BITMAP
FFFF
FFFF
FFFF
FFFF
FFFF
FFFF
FFFF
FFFF
FFFF
FFFF
FFFF
FFFF
FFFF
FFFF
FFFF
FFFF
ENDCHAR
STARTCHAR char142
ENCODING 142
SWIDTH 850 0
DWIDTH 17 0
BBX 13 17 0 5
BITMAP
E078
E078
E078
0600
0600
1F80
1F80
79E0
E078
E078
E078
E078
FFF8
E078
E078
E078
E078
ENDCHAR
STARTCHAR char143
ENCODING 143
SWIDTH 850 0
DWIDTH 17 0
BBX 13 18 0 5
BITMAP
1F80
79E0
79E0
1F80
0000
0000
1F80
1F80
79E0
E078
E078
E078
E078
FFF8
E078
E078
E078
E078
ENDCHAR
STARTCHAR char144
ENCODING 144
SWIDTH 850 0
DWIDTH 17 0
BBX 13 18 0 5
BITMAP
0780
1E00
1E00
7800
0000
0000
FFF8
FFF8
7878
7800
7800
7FE0
7FE0
7800
7878
7878
FFF8
FFF8
ENDCHAR
STARTCHAR char145
ENCODING 145
SWIDTH 850 0
DWIDTH 17 0
BBX 13 12 0 5
BITMAP
E1E0
E1E0
7E78
1E78
1E78
7FF8
7FF8
E780
E780
E780
79F8
79F8
ENDCHAR
STARTCHAR char146
ENCODING 146
SWIDTH 850 0
DWIDTH 17 0
BBX 13 15 0 5
BITMAP
1FF8
79E0
79E0
E1E0
E1E0
E1E0
FFF8
FFF8
E1E0
E1E0
E1E0
E1E0
E1E0
E1F8
E1F8
ENDCHAR
STARTCHAR char147
ENCODING 147
SWIDTH 850 0
DWIDTH 17 0
BBX 13 17 0 5
BITMAP
0600
0600
1F80
79E0
79E0
0000
0000
7FE0
E078
E078
E078
E078
E078
E078
E078
7FE0
7FE0
ENDCHAR
STARTCHAR char148
ENCODING 148
SWIDTH 850 0
DWIDTH 17 0
BBX 13 15 0 5
BITMAP
E078
E078
E078
0000
0000
7FE0
E078
E078
E078
E078
E078
E078
E078
7FE0
7FE0
ENDCHAR
STARTCHAR char149
ENCODING 149
SWIDTH 850 0
DWIDTH 17 0
BBX 13 17 0 5
BITMAP
7800
7800
1E00
0780
0780
0000
0000
7FE0
E078
E078
E078
E078
E078
E078
E078
7FE0
7FE0
ENDCHAR
STARTCHAR char150
ENCODING 150
SWIDTH 850 0
DWIDTH 17 0
BBX 13 17 0 5
BITMAP
1E00
1E00
7F80
E1E0
E1E0
0000
0000
E1E0
E1E0
E1E0
E1E0
E1E0
E1E0
E1E0
E1E0
7E78
7E78
ENDCHAR
STARTCHAR char151
ENCODING 151
SWIDTH 850 0
DWIDTH 17 0
BBX 13 17 0 5
BITMAP
7800
7800
1E00
0780
0780
0000
0000
E1E0
E1E0
E1E0
E1E0
E1E0
E1E0
E1E0
E1E0
7E78
7E78
ENDCHAR
STARTCHAR char152
ENCODING 152
SWIDTH 850 0
DWIDTH 17 0
BBX 13 20 0 0
BITMAP
E078
E078
E078
0000
0000
E078
E078
E078
E078
E078
E078
7FF8
7FF8
0078
0078
01E0
7F80
7F80
7F80
7F80
ENDCHAR
STARTCHAR char153
ENCODING 153
SWIDTH 850 0
DWIDTH 17 0
BBX 13 17 0 5
BITMAP
E078
E078
E078
1F80
1F80
79E0
79E0
E078
E078
E078
E078
E078
E078
79E0
79E0
1F80
1F80
ENDCHAR
STARTCHAR char154
ENCODING 154
SWIDTH 850 0
DWIDTH 17 0
BBX 13 17 0 5
BITMAP
E078
E078
E078
0000
0000
E078
E078
E078
E078
E078
E078
E078
E078
E078
E078
7FE0
7FE0
ENDCHAR
STARTCHAR char155
ENCODING 155
SWIDTH 850 0
DWIDTH 17 0
BBX 12 17 1 5
BITMAP
0F00
0F00
0F00
3FC0
3FC0
F0F0
F0F0
F000
F000
F000
F0F0
F0F0
3FC0
0F00
0F00
0F00
0F00
ENDCHAR
STARTCHAR char156
ENCODING 156
SWIDTH 850 0
DWIDTH 17 0
BBX 13 17 0 5
BITMAP
1F80
1F80
79E0
7860
7860
7800
7800
FE00
7800
7800
7800
7800
7800
F878
F878
FFE0
FFE0
ENDCHAR
STARTCHAR char157
ENCODING 157
SWIDTH 850 0
DWIDTH 17 0
BBX 12 15 1 5
BITMAP
F0F0
F0F0
F0F0
3FC0
3FC0
0F00
FFF0
FFF0
0F00
0F00
FFF0
0F00
0F00
0F00
0F00
ENDCHAR
STARTCHAR char158
ENCODING 158
SWIDTH 850 0
DWIDTH 17 0
BBX 13 17 0 5
BITMAP
FF80
FF80
E1E0
E1E0
E1E0
FF80
FF80
E060
E1E0
E1E0
E7F8
E7F8
E1E0
E1E0
E1E0
E078
E078
ENDCHAR
STARTCHAR char159
ENCODING 159
SWIDTH 850 0
DWIDTH 17 0
BBX 13 22 0 0
BITMAP
01F8
01F8
0000
0780
0780
0780
0780
0780
7FF8
7FF8
0780
0780
0780
0780
0780
0780
0780
E780
7E00
7E00
7E00
7E00
ENDCHAR
STARTCHAR char160
ENCODING 160
SWIDTH 850 0
DWIDTH 17 0
BBX 13 17 0 5
BITMAP
0780
0780
1E00
7800
7800
0000
0000
7F80
01E0
01E0
7FE0
7FE0
E1E0
E1E0
E1E0
7E78
7E78
ENDCHAR
STARTCHAR char161
ENCODING 161
SWIDTH 850 0
DWIDTH 17 0
BBX 8 17 3 5
BITMAP
0F
0F
3C
F0
F0
00
00
FC
3C
3C
3C
3C
3C
3C
3C
FF
FF
ENDCHAR
STARTCHAR char162
ENCODING 162
SWIDTH 850 0
DWIDTH 17 0
BBX 13 17 0 5
BITMAP
0780
0780
1E00
7800
7800
0000
0000
7FE0
E078
E078
E078
E078
E078
E078
E078
7FE0
7FE0
ENDCHAR
STARTCHAR char163
ENCODING 163
SWIDTH 850 0
DWIDTH 17 0
BBX 13 17 0 5
BITMAP
0780
0780
1E00
7800
7800
0000
0000
E1E0
E1E0
E1E0
E1E0
E1E0
E1E0
E1E0
E1E0
7E78
7E78
ENDCHAR
STARTCHAR char164
ENCODING 164
SWIDTH 850 0
DWIDTH 17 0
BBX 13 15 0 5
BITMAP
7E78
E7E0
E7E0
0000
0000
E7E0
7878
7878
7878
7878
7878
7878
7878
7878
7878
ENDCHAR
STARTCHAR char165
ENCODING 165
SWIDTH 850 0
DWIDTH 17 0
BBX 13 18 0 5
BITMAP
7E78
E7E0
E7E0
0000
E078
E078
F878
F878
FE78
FFF8
FFF8
E7F8
E7F8
E1F8
E078
E078
E078
E078
ENDCHAR
STARTCHAR char166
ENCODING 166
SWIDTH 850 0
DWIDTH 17 0
BBX 12 10 1 12
BITMAP
3FC0
3FC0
F3C0
F3C0
F3C0
3FF0
3FF0
0000
FFF0
FFF0
ENDCHAR
STARTCHAR char167
ENCODING 167
SWIDTH 850 0
DWIDTH 17 0
BBX 10 10 1 12
BITMAP
3F00
3F00
F3C0
F3C0
F3C0
3F00
3F00
0000
FFC0
FFC0
ENDCHAR
STARTCHAR char168
ENCODING 168
SWIDTH 850 0
DWIDTH 17 0
BBX 13 15 0 5
BITMAP
1E00
1E00
1E00
0000
0000
1E00
1E00
1E00
7800
7800
E078
E078
E078
7FE0
7FE0
ENDCHAR
STARTCHAR char169
ENCODING 169
SWIDTH 850 0
DWIDTH 17 0
BBX 13 7 0 7
BITMAP
FFF8
FFF8
E000
E000
E000
E000
E000
ENDCHAR
STARTCHAR char170
ENCODING 170
SWIDTH 850 0
DWIDTH 17 0
BBX 13 7 0 7
BITMAP
FFF8
FFF8
0078
0078
0078
0078
0078
ENDCHAR
STARTCHAR char171
ENCODING 171
SWIDTH 850 0
DWIDTH 17 0
BBX 13 22 0 0
BITMAP
E000
E000
E000
E078
E078
E1E0
E1E0
E780
1E00
1E00
7800
7800
E7E0
8078
8078
01E0
01E0
0780
1FF8
1FF8
1FF8
1FF8
ENDCHAR
STARTCHAR char172
ENCODING 172
SWIDTH 850 0
DWIDTH 17 0
BBX 13 22 0 0
BITMAP
E000
E000
E000
E078
E078
E1E0
E1E0
E780
1E00
1E00
7878
7878
E1F8
87F8
87F8
1FF8
1FF8
0078
0078
0078
0078
0078
ENDCHAR
STARTCHAR char173
ENCODING 173
SWIDTH 850 0
DWIDTH 17 0
BBX 8 15 3 5
BITMAP
3C
3C
3C
00
00
3C
3C
3C
FF
FF
FF
FF
FF
3C
3C
ENDCHAR
STARTCHAR char174
ENCODING 174
SWIDTH 850 0
DWIDTH 17 0
BBX 13 8 0 9
BITMAP
1E78
1E78
79E0
E780
E780
79E0
79E0
1E78
ENDCHAR
STARTCHAR char175
ENCODING 175
SWIDTH 850 0
DWIDTH 17 0
BBX 13 8 0 9
BITMAP
E780
E780
79E0
1E78
1E78
79E0
79E0
E780
ENDCHAR
STARTCHAR char176
ENCODING 176
SWIDTH 850 0
DWIDTH 17 0
BBX 15 22 0 0
BITMAP
0030
07B0
1FF0
1860
38F0
30F0
71F8
71B8
73B8
73B8
7738
7738
7E38
7E38
3C30
3C70
1860
3FE0
3780
3000
FFFE
FFFE
ENDCHAR
STARTCHAR char177
ENCODING 177
SWIDTH 850 0
DWIDTH 17 0
BBX 15 20 0 0
BITMAP
0380
1F80
7F80
4380
0380
0380
0380
0380
0380
0380
0380
0380
0380
0380
0380
7FFC
7FFC
0000
FFFE
FFFE
ENDCHAR
STARTCHAR char178
ENCODING 178
SWIDTH 850 0
DWIDTH 17 0
BBX 15 21 0 0
BITMAP
0FC0
3FF0
3070
0038
0038
0038
0038
0070
00E0
01C0
0380
0700
0E00
0C00
1C00
3800
3FF8
3FF8
0000
FFFE
FFFE
ENDCHAR
STARTCHAR char179
ENCODING 179
SWIDTH 850 0
DWIDTH 17 0
BBX 15 21 0 0
BITMAP
1F80
3FE0
20F0
0070
0070
0070
00E0
0FC0
0F00
01C0
00E0
0070
0070
0070
0070
20E0
3FC0
3F80
0000
FFFE
FFFE
ENDCHAR
STARTCHAR char180
ENCODING 180
SWIDTH 850 0
DWIDTH 17 0
BBX 15 21 0 0
BITMAP
0070
00F0
01F0
01F0
0370
0770
0E70
1C70
1870
3870
7070
7FFC
7FFC
0070
0070
0070
0070
0070
0000
FFFE
FFFE
ENDCHAR
STARTCHAR char181
ENCODING 181
SWIDTH 850 0
DWIDTH 17 0
BBX 15 21 0 0
BITMAP
1FF0
1FF0
1800
1800
1800
1800
1F00
1FC0
01E0
00E0
0070
0070
0070
0070
00F0
10E0
1FC0
1F80
0000
FFFE
FFFE
ENDCHAR
STARTCHAR char182
ENCODING 182
SWIDTH 850 0
DWIDTH 17 0
BBX 15 21 0 0
BITMAP
03E0
0FF0
1E10
3800
3800
3000
7000
73C0
77F0
7870
7038
7038
7038
7038
3838
3870
1FE0
07C0
0000
FFFE
FFFE
ENDCHAR
STARTCHAR char183
ENCODING 183
SWIDTH 850 0
DWIDTH 17 0
BBX 15 21 0 0
BITMAP
3FF8
3FF8
3FF8
0030
0070
0060
00E0
00C0
01C0
0180
0380
0700
0700
0E00
0E00
0E00
1C00
1C00
0000
FFFE
FFFE
ENDCHAR
STARTCHAR char184
ENCODING 184
SWIDTH 850 0
DWIDTH 17 0
BBX 15 21 0 0
BITMAP
03E0
0FF0
1E38
1C18
1C18
1C18
0E30
07E0
07E0
0FF0
1C78
383C
381C
381C
381C
1C38
1FF0
07E0
0000
FFFE
FFFE
ENDCHAR
STARTCHAR char185
ENCODING 185
SWIDTH 850 0
DWIDTH 17 0
BBX 15 21 0 0
BITMAP
07C0
0FF0
1C38
3838
381C
381C
381C
381C
1C3C
1FDC
079C
001C
0018
0038
0038
10F0
1FE0
0F80
0000
FFFE
FFFE
ENDCHAR
STARTCHAR char186
ENCODING 186
SWIDTH 850 0
DWIDTH 17 0
BBX 15 8 0 9
BITMAP
FFFE
FFFE
FFFE
FFFE
FFFE
FFFE
FFFE
FFFE
ENDCHAR
STARTCHAR char187
ENCODING 187
SWIDTH 850 0
DWIDTH 17 0
BBX 15 18 0 4
BITMAP
7800
7800
7E00
7F80
7F80
FFE0
FFE0
FFF8
FFFE
FFFE
FFF8
FFF8
FFE0
7F80
7F80
7E00
7E00
7800
ENDCHAR
STARTCHAR char188
ENCODING 188
SWIDTH 850 0
DWIDTH 17 0
BBX 13 13 0 10
BITMAP
1E78
1E78
1E78
1E78
1E78
1E78
1E78
1E78
FE78
0078
0078
FFF8
FFF8
ENDCHAR
STARTCHAR char189
ENCODING 189
SWIDTH 850 0
DWIDTH 17 0
BBX 13 13 0 10
BITMAP
1E78
1E78
1E78
1E78
1E78
1E78
1E78
1E78
1E78
1E78
1E78
FFF8
FFF8
ENDCHAR
STARTCHAR char190
ENCODING 190
SWIDTH 850 0
DWIDTH 17 0
BBX 9 13 0 10
BITMAP
0780
0780
0780
0780
0780
0780
0780
0780
FF80
0780
0780
FF80
FF80
ENDCHAR
STARTCHAR char191
ENCODING 191
SWIDTH 850 0
DWIDTH 17 0
BBX 9 12 0 0
BITMAP
FF80
FF80
0780
0780
0780
0780
0780
0780
0780
0780
0780
0780
ENDCHAR
STARTCHAR char192
ENCODING 192
SWIDTH 850 0
DWIDTH 17 0
BBX 8 13 5 10
BITMAP
F0
F0
F0
F0
F0
F0
F0
F0
F0
F0
F0
F3
F3
ENDCHAR
STARTCHAR char193
ENCODING 193
SWIDTH 850 0
DWIDTH 17 0
BBX 15 21 0 0
BITMAP
0380
03C0
06C0
06C0
0660
0E60
0C60
0C70
1830
1830
1818
3FF8
3FF8
300C
600C
600C
6006
C006
0000
FFFE
FFFE
ENDCHAR
STARTCHAR char194
ENCODING 194
SWIDTH 850 0
DWIDTH 17 0
BBX 15 21 0 0
BITMAP
3FC0
3FE0
3070
3030
3030
3030
3030
3070
3FE0
3FF0
3038
3018
3018
3018
3018
3038
3FF0
3FE0
0000
FFFE
FFFE
ENDCHAR
STARTCHAR char195
ENCODING 195
SWIDTH 850 0
DWIDTH 17 0
BBX 15 21 0 0
BITMAP
03F8
0FFC
1E0C
3C00
3800
3800
7000
7000
7000
7000
7000
7000
7800
3800
3C00
1F04
0FFC
03F8
0000
FFFE
FFFE
ENDCHAR
STARTCHAR char196
ENCODING 196
SWIDTH 850 0
DWIDTH 17 0
BBX 15 21 0 0
BITMAP
7FC0
7FF0
70F8
7038
703C
701C
701C
701C
701C
701C
701C
701C
701C
7038
7038
70F0
7FE0
7F80
0000
FFFE
FFFE
ENDCHAR
STARTCHAR char197
ENCODING 197
SWIDTH 850 0
DWIDTH 17 0
BBX 15 21 0 0
BITMAP
7FF0
7FF0
7000
7000
7000
7000
7000
7FE0
7FE0
7000
7000
7000
7000
7000
7000
7000
7FF8
7FF8
0000
FFFE
FFFE
ENDCHAR
STARTCHAR char198
ENCODING 198
SWIDTH 850 0
DWIDTH 17 0
BBX 15 21 0 0
BITMAP
7FF8
7FF8
7000
7000
7000
7000
7000
7000
7FF0
7FE0
7000
7000
7000
7000
7000
7000
7000
7000
0000
FFFE
FFFE
ENDCHAR
STARTCHAR char199
ENCODING 199
SWIDTH 850 0
DWIDTH 17 0
BBX 15 21 0 0
BITMAP
03F8
0FFC
1E04
3C00
3800
3800
7000
7000
7000
7000
701C
701C
781C
381C
3C1C
1E1C
0FFC
03F8
0000
FFFE
FFFE
ENDCHAR
STARTCHAR char200
ENCODING 200
SWIDTH 850 0
DWIDTH 17 0
BBX 15 21 0 0
BITMAP
3838
3838
3838
3838
3838
3838
3838
3838
3FF8
3FF8
3838
3838
3838
3838
3838
3838
3838
3838
0000
FFFE
FFFE
ENDCHAR
STARTCHAR char201
ENCODING 201
SWIDTH 850 0
DWIDTH 17 0
BBX 15 21 0 0
BITMAP
3FF8
3FF8
0380
0380
0380
0380
0380
0380
0380
0380
0380
0380
0380
0380
0380
0380
3FF8
3FF8
0000
FFFE
FFFE
ENDCHAR
STARTCHAR char202
ENCODING 202
SWIDTH 850 0
DWIDTH 17 0
BBX 15 21 0 0
BITMAP
1FFE
1FFE
00C0
00C0
00C0
00C0
00C0
00C0
00C0
00C0
00C0
00C0
00C0
00C0
60C0
71C0
3F80
1F00
0000
FFFE
FFFE
ENDCHAR
STARTCHAR char203
ENCODING 203
SWIDTH 850 0
DWIDTH 17 0
BBX 15 21 0 0
BITMAP
7038
7070
7060
70C0
71C0
7380
7300
7700
7E00
7F00
7780
7380
73C0
71E0
70F0
7078
7038
703C
0000
FFFE
FFFE
ENDCHAR
STARTCHAR char204
ENCODING 204
SWIDTH 850 0
DWIDTH 17 0
BBX 15 21 0 0
BITMAP
7000
7000
7000
7000
7000
7000
7000
7000
7000
7000
7000
7000
7000
7000
7000
7000
7FF0
7FF0
0000
FFFE
FFFE
ENDCHAR
STARTCHAR char205
ENCODING 205
SWIDTH 850 0
DWIDTH 17 0
BBX 15 21 0 0
BITMAP
600C
701C
783C
7C7C
6FEC
67CC
638C
610C
600C
600C
600C
600C
600C
600C
600C
600C
600C
600C
0000
FFFE
FFFE
ENDCHAR
STARTCHAR char206
ENCODING 206
SWIDTH 850 0
DWIDTH 17 0
BBX 15 21 0 0
BITMAP
3818
3818
3C18
3C18
3E18
3E18
3F18
3718
3718
3398
3398
31D8
31D8
30F8
30F8
3078
3078
3038
0000
FFFE
FFFE
ENDCHAR
STARTCHAR char207
ENCODING 207
SWIDTH 850 0
DWIDTH 17 0
BBX 15 21 0 0
BITMAP
07E0
0FF0
1C38
381C
381C
700E
700E
700E
700E
700E
700E
700E
700E
381C
381C
1C38
0FF0
07E0
0000
FFFE
FFFE
ENDCHAR
STARTCHAR char208
ENCODING 208
SWIDTH 850 0
DWIDTH 17 0
BBX 15 21 0 0
BITMAP
3FE0
3FF0
3878
3838
3838
3838
3838
3830
3870
3FE0
3F80
3800
3800
3800
3800
3800
3800
3800
0000
FFFE
FFFE
ENDCHAR
STARTCHAR char209
ENCODING 209
SWIDTH 850 0
DWIDTH 17 0
BBX 15 21 0 0
BITMAP
07E0
0FF0
1C38
381C
381C
700E
700E
700E
700E
700E
700E
718E
71CE
38EC
387C
1C38
0FFC
07EE
0000
FFFE
FFFE
ENDCHAR
STARTCHAR char210
ENCODING 210
SWIDTH 850 0
DWIDTH 17 0
BBX 15 21 0 0
BITMAP
7F80
7FC0
60E0
6060
6060
6060
6060
60E0
61C0
7F80
7F00
6380
61C0
60E0
6070
6038
601C
600C
0000
FFFE
FFFE
ENDCHAR
STARTCHAR char211
ENCODING 211
SWIDTH 850 0
DWIDTH 17 0
BBX 15 21 0 0
BITMAP
0FC0
3FE0
7820
7000
7000
7000
7C00
3F00
0FC0
03E0
01F0
0078
0038
0038
0038
6070
7FE0
3FC0
0000
FFFE
FFFE
ENDCHAR
STARTCHAR char212
ENCODING 212
SWIDTH 850 0
DWIDTH 17 0
BBX 15 21 0 0
BITMAP
FFFE
FFFE
0380
0380
0380
0380
0380
0380
0380
0380
0380
0380
0380
0380
0380
0380
0380
0380
0000
FFFE
FFFE
ENDCHAR
STARTCHAR char213
ENCODING 213
SWIDTH 850 0
DWIDTH 17 0
BBX 15 21 0 0
BITMAP
3818
3818
3818
3818
3818
3818
3818
3818
3818
3818
3818
3818
3818
3818
3818
1C30
1FF0
07C0
0000
FFFE
FFFE
ENDCHAR
STARTCHAR char214
ENCODING 214
SWIDTH 850 0
DWIDTH 17 0
BBX 15 21 0 0
BITMAP
C006
C006
600C
600C
600C
3018
3018
3018
1830
1830
1830
0C60
0C60
0C60
06C0
07C0
0380
0380
0000
FFFE
FFFE
ENDCHAR
STARTCHAR char215
ENCODING 215
SWIDTH 850 0
DWIDTH 17 0
BBX 15 21 0 0
BITMAP
C006
C006
C006
C006
C006
C006
C006
C006
C006
C106
C386
C7C6
CEE6
DC76
F83E
F01E
E00E
C006
0000
FFFE
FFFE
ENDCHAR
STARTCHAR char216
ENCODING 216
SWIDTH 850 0
DWIDTH 17 0
BBX 15 21 0 0
BITMAP
F00E
781C
3818
3C30
1E70
0E60
0FC0
07C0
0380
03C0
07E0
0EE0
0CF0
1870
3838
303C
601C
E01E
0000
FFFE
FFFE
ENDCHAR
STARTCHAR char217
ENCODING 217
SWIDTH 850 0
DWIDTH 17 0
BBX 15 21 0 0
BITMAP
E00E
700C
7818
3818
3C30
1C70
1E60
0FE0
07C0
0780
0380
0380
0380
0380
0380
0380
0380
0380
0000
FFFE
FFFE
ENDCHAR
STARTCHAR char218
ENCODING 218
SWIDTH 850 0
DWIDTH 17 0
BBX 15 21 0 0
BITMAP
3FFC
3FFC
003C
0078
0070
00F0
01E0
01C0
03C0
0780
0700
0F00
1E00
3C00
3800
7800
7FFC
7FFC
0000
FFFE
FFFE
ENDCHAR
STARTCHAR char219
ENCODING 219
SWIDTH 850 0
DWIDTH 17 0
BBX 13 15 0 5
BITMAP
7FE0
E078
E078
E078
E078
E7F8
E7F8
E7F8
E7F8
E7F8
E7E0
E000
E000
7FE0
7FE0
ENDCHAR
STARTCHAR char220
ENCODING 220
SWIDTH 850 0
DWIDTH 17 0
BBX 0 0 0 0
BITMAP
ENDCHAR
STARTCHAR char221
ENCODING 221
SWIDTH 850 0
DWIDTH 17 0
BBX 7 23 0 0
BITMAP
FE
FE
FE
FE
FE
FE
FE
FE
FE
FE
FE
FE
FE
FE
FE
FE
FE
FE
FE
FE
FE
FE
FE
ENDCHAR
STARTCHAR char222
ENCODING 222
SWIDTH 850 0
DWIDTH 17 0
BBX 2 23 5 0
BITMAP
C0
C0
C0
C0
C0
C0
C0
C0
C0
C0
C0
C0
C0
C0
C0
C0
C0
C0
C0
C0
C0
C0
C0
ENDCHAR
STARTCHAR char223
ENCODING 223
SWIDTH 850 0
DWIDTH 17 0
BBX 15 15 1 5
BITMAP
0100
0100
0380
0380
FFFE
7FFC
1FF0
0FE0
0FE0
1FF0
1FF0
3C78
3838
600C
4004
ENDCHAR
STARTCHAR char224
ENCODING 224
SWIDTH 850 0
DWIDTH 17 0
BBX 11 17 3 4
BITMAP
0400
0E00
0E00
1B00
3180
3180
60C0
60C0
C060
60C0
60C0
3180
3180
1B00
0E00
0E00
0400
ENDCHAR
STARTCHAR char225
ENCODING 225
SWIDTH 850 0
DWIDTH 17 0
BBX 15 15 1 5
BITMAP
07C0
1FF0
3838
600C
600C
C006
C106
C386
C106
C006
600C
600C
3838
1FF0
07C0
ENDCHAR
STARTCHAR char226
ENCODING 226
SWIDTH 850 0
DWIDTH 17 0
BBX 17 17 0 4
BITMAP
FFFF80
FFFF80
CFF980
DC1D80
F00780
F00780
E00380
E08380
E1C380
E08380
E00380
F00780
F00780
DC1D80
CFF980
FFFF80
FFFF80
ENDCHAR
STARTCHAR char227
ENCODING 227
SWIDTH 850 0
DWIDTH 17 0
BBX 13 17 0 4
BITMAP
6000
7800
1800
1800
1800
1800
FFC0
FFC0
18C0
18C0
18C0
18C0
78C0
60C0
00C0
07F8
07F8
ENDCHAR
STARTCHAR char228
ENCODING 228
SWIDTH 850 0
DWIDTH 17 0
BBX 17 17 0 4
BITMAP
008000
01C000
01C000
01C000
01C000
01C000
008000
7C1F00
FE3F80
7C1F00
008000
01C000
01C000
01C000
01C000
01C000
008000
ENDCHAR
STARTCHAR char229
ENCODING 229
SWIDTH 850 0
DWIDTH 17 0
BBX 17 17 0 4
BITMAP
008000
01C000
01C000
01C000
01C000
01C000
01C000
7FFF00
FFFF80
7FFF00
01C000
01C000
01C000
01C000
01C000
01C000
008000
ENDCHAR
STARTCHAR char230
ENCODING 230
SWIDTH 850 0
DWIDTH 17 0
BBX 13 13 0 4
BITMAP
7878
7878
7878
7878
7878
7878
7878
7FE0
7800
7800
7800
7800
E000
ENDCHAR
STARTCHAR char231
ENCODING 231
SWIDTH 850 0
DWIDTH 17 0
BBX 13 12 0 5
BITMAP
7E78
7E78
E7E0
0780
0780
0780
0780
0780
0780
0780
0780
0780
ENDCHAR
STARTCHAR char232
ENCODING 232
SWIDTH 850 0
DWIDTH 17 0
BBX 12 15 1 5
BITMAP
FFF0
0F00
0F00
3FC0
3FC0
F0F0
F0F0
F0F0
F0F0
F0F0
3FC0
0F00
0F00
FFF0
FFF0
ENDCHAR
STARTCHAR char233
ENCODING 233
SWIDTH 850 0
DWIDTH 17 0
BBX 13 15 0 5
BITMAP
1F80
79E0
79E0
E078
E078
E078
FFF8
FFF8
E078
E078
E078
79E0
79E0
1F80
1F80
ENDCHAR
STARTCHAR char234
ENCODING 234
SWIDTH 850 0
DWIDTH 17 0
BBX 13 15 0 5
BITMAP
1F80
79E0
79E0
E078
E078
E078
E078
E078
79E0
79E0
79E0
79E0
79E0
F9F8
F9F8
ENDCHAR
STARTCHAR char235
ENCODING 235
SWIDTH 850 0
DWIDTH 17 0
BBX 12 15 1 5
BITMAP
0FF0
3C00
3C00
0F00
0F00
03C0
3FF0
3FF0
F0F0
F0F0
F0F0
F0F0
F0F0
3FC0
3FC0
ENDCHAR
STARTCHAR char236
ENCODING 236
SWIDTH 850 0
DWIDTH 17 0
BBX 12 6 1 9
BITMAP
FFF0
0000
0000
0000
0000
FFF0
ENDCHAR
STARTCHAR char237
ENCODING 237
SWIDTH 850 0
DWIDTH 17 0
BBX 15 15 1 4
BITMAP
07C0
1930
2108
4004
4004
8002
8002
E00E
8002
8002
4004
4004
2108
1930
07C0
ENDCHAR
STARTCHAR char238
ENCODING 238
SWIDTH 850 0
DWIDTH 17 0
BBX 17 17 0 3
BITMAP
014000
014000
014000
014000
014000
014000
014000
FF7F80
000000
FF7F80
014000
014000
014000
014000
014000
014000
014000
ENDCHAR
STARTCHAR char239
ENCODING 239
SWIDTH 850 0
DWIDTH 17 0
BBX 17 17 0 3
BITMAP
008000
008000
008000
008000
008000
008000
008000
008000
FFFF80
008000
008000
008000
008000
008000
008000
008000
008000
ENDCHAR
STARTCHAR char240
ENCODING 240
SWIDTH 850 0
DWIDTH 17 0
BBX 11 11 3 7
BITMAP
0400
0A00
0A00
1100
1100
2080
2080
4040
4040
8020
8020
ENDCHAR
STARTCHAR char241
ENCODING 241
SWIDTH 850 0
DWIDTH 17 0
BBX 11 11 3 7
BITMAP
0400
0A00
0A00
1100
1100
2080
2080
4440
4040
8420
8420
ENDCHAR
STARTCHAR char242
ENCODING 242
SWIDTH 850 0
DWIDTH 17 0
BBX 5 11 6 7
BITMAP
20
A8
70
A8
20
20
20
20
20
20
20
ENDCHAR
STARTCHAR char243
ENCODING 243
SWIDTH 850 0
DWIDTH 17 0
BBX 5 5 6 10
BITMAP
20
A8
70
A8
20
ENDCHAR
STARTCHAR char244
ENCODING 244
SWIDTH 850 0
DWIDTH 17 0
BBX 11 11 3 7
BITMAP
0400
1F00
2080
4040
4040
C060
4040
4040
2080
1F00
0400
ENDCHAR
STARTCHAR char245
ENCODING 245
SWIDTH 850 0
DWIDTH 17 0
BBX 9 9 4 8
BITMAP
3E00
4100
9C80
A280
A280
A280
9C80
4100
3E00
ENDCHAR
STARTCHAR char246
ENCODING 246
SWIDTH 850 0
DWIDTH 17 0
BBX 11 11 3 7
BITMAP
0400
1F00
2080
4E40
5140
D160
5140
4E40
2080
1F00
0400
ENDCHAR
STARTCHAR char247
ENCODING 247
SWIDTH 850 0
DWIDTH 17 0
BBX 9 9 4 8
BITMAP
3E00
4100
8080
8080
8080
8080
8080
4100
3E00
ENDCHAR
STARTCHAR char248
ENCODING 248
SWIDTH 850 0
DWIDTH 17 0
BBX 11 11 3 7
BITMAP
8420
4440
2480
1F00
1100
F1E0
1100
1F00
2480
4440
8420
ENDCHAR
STARTCHAR char249
ENCODING 249
SWIDTH 850 0
DWIDTH 17 0
BBX 9 9 4 8
BITMAP
3E00
4100
9480
9480
9C80
9480
9480
4100
3E00
ENDCHAR
STARTCHAR char250
ENCODING 250
SWIDTH 850 0
DWIDTH 17 0
BBX 9 9 4 8
BITMAP
0800
0800
0800
0800
FF80
0800
0800
0800
0800
ENDCHAR
STARTCHAR char251
ENCODING 251
SWIDTH 850 0
DWIDTH 17 0
BBX 9 9 4 8
BITMAP
8080
4100
2200
1400
0800
1400
2200
4100
8080
ENDCHAR
STARTCHAR char252
ENCODING 252
SWIDTH 850 0
DWIDTH 17 0
BBX 5 5 6 10
BITMAP
70
F8
F8
F8
70
ENDCHAR
STARTCHAR char253
ENCODING 253
SWIDTH 850 0
DWIDTH 17 0
BBX 9 9 4 8
BITMAP
3E00
4100
9C80
BE80
BE80
BE80
9C80
4100
3E00
ENDCHAR
STARTCHAR char254
ENCODING 254
SWIDTH 850 0
DWIDTH 17 0
BBX 9 9 4 8
BITMAP
FF80
8080
8080
8080
8080
8080
8080
8080
FF80
ENDCHAR
STARTCHAR char255
ENCODING 255
SWIDTH 850 0
DWIDTH 17 0
BBX 0 0 0 0
BITMAP
ENDCHAR
ENDFONT
